<svg width="387" height="387" viewBox="0 0 387 387" fill="none" xmlns="http://www.w3.org/2000/svg">
<g clip-path="url(#clip0)">
<path d="M32.1067 199.677C34.2385 198.556 36.4368 197.569 38.6858 196.713C32.1692 190.326 28.6668 181.47 29.0534 172.353C29.4399 163.236 33.6802 154.709 40.72 148.899C39.9899 148.399 39.3808 147.743 38.9357 146.982C38.471 146.174 38.0298 145.354 37.6003 144.526C36.1752 145.197 34.7969 145.974 33.4811 146.845C24.7272 152.671 19.3546 162.393 19.0813 172.904C18.8079 183.415 23.669 193.402 32.1067 199.677Z" fill="#E4FEE4"/>
<path d="M49.1303 147.275C50.9147 149.984 54.5302 150.781 57.2868 149.075C60.0434 147.368 60.9414 143.776 59.3132 140.973C51.2739 127.03 50.8288 109.967 58.1302 95.6258C65.4316 81.2807 79.4917 71.6053 95.4963 69.9069C93.8408 69.7312 92.1736 69.6414 90.5102 69.6375C73.5217 69.6453 57.8256 78.7076 49.3294 93.4198C40.8332 108.132 40.8293 126.257 49.3177 140.973C50.4539 142.941 50.3797 145.381 49.1303 147.275Z" fill="#E4FEE4"/>
<path d="M125.862 69.2665C128.524 71.2344 129.091 74.9905 127.123 77.6534C127.099 77.6807 127.076 77.7041 127.056 77.7354C127.619 78.1141 128.177 78.5046 128.728 78.9145C130.453 80.1952 132.73 80.4607 134.701 79.6017C136.669 78.7467 138.032 76.9037 138.27 74.768C138.508 72.6361 137.587 70.5355 135.857 69.2665C134.405 68.1928 132.909 67.201 131.383 66.2679C127.103 58.5565 126.779 49.2598 130.516 41.2712C134.252 33.2826 141.597 27.5742 150.257 25.9187C139.82 24.0328 129.227 28.3317 123.054 36.9567C116.881 45.5857 116.233 56.9947 121.387 66.2679C122.914 67.201 124.409 68.1928 125.862 69.2665Z" fill="#E4FEE4"/>
<path d="M60.6447 323.368V311.857C60.2816 311.924 59.9146 311.959 59.5475 311.959C56.5684 311.951 53.5971 311.736 50.6492 311.314V323.368C50.6882 333.32 55.0495 342.761 62.597 349.247C70.1444 355.732 80.136 358.621 89.9792 357.165C73.1938 354.694 60.7306 340.337 60.6447 323.368Z" fill="#E4FEE4"/>
<path d="M65.6307 305.965C65.6112 308.374 64.1587 310.545 61.9332 311.475C64.4594 311.791 67.0012 311.955 69.547 311.963C72.8775 311.967 75.5911 309.292 75.6302 305.965C75.6419 304.38 75.0172 302.853 73.9005 301.729C72.7838 300.604 71.261 299.968 69.6758 299.968C43.4961 299.835 22.3493 278.571 22.361 252.392C22.3727 226.212 43.539 204.964 69.7188 204.858C73.0337 204.858 75.7161 202.172 75.7161 198.861C75.7161 195.546 73.0337 192.864 69.7188 192.864C67.173 192.864 64.6273 193.028 62.1011 193.355C64.7093 194.48 66.1696 197.287 65.5956 200.071C65.0177 202.855 62.5696 204.854 59.7232 204.858C33.5435 204.964 12.3772 226.212 12.3655 252.392C12.3538 278.571 33.5006 299.835 59.6803 299.968C61.2655 299.972 62.7844 300.604 63.901 301.729C65.0177 302.857 65.6385 304.38 65.6307 305.965Z" fill="#E4FEE4"/>
<path d="M127.861 355.834C136.447 347.209 141.273 335.538 141.277 323.368C141.284 320.721 139.551 318.386 137.017 317.624C134.483 316.863 131.75 317.859 130.297 320.072C130.941 321.049 131.285 322.196 131.281 323.368C131.277 335.538 126.451 347.209 117.865 355.834C125.178 361.472 134.475 363.885 143.608 362.514C137.876 361.655 132.46 359.36 127.861 355.834Z" fill="#E4FEE4"/>
<path d="M316.031 99.132C317.768 99.1242 319.498 98.9016 321.181 98.4643L343.034 128.896C336.592 133.363 333.183 141.051 334.198 148.821C335.209 156.595 340.477 163.15 347.848 165.817L340.028 200.899L350.043 205.299L358.843 165.817C351.472 163.15 346.205 156.595 345.193 148.821C344.178 141.051 347.587 133.363 354.029 128.896L332.176 98.4643C323.66 100.643 314.687 97.2734 309.713 90.0306C304.735 82.7838 304.813 73.2022 309.904 66.0335L299.557 61.7542L301.963 77.2199C302.232 78.9496 301.728 80.7144 300.584 82.0459C299.444 83.3734 297.777 84.1387 296.024 84.1387C295.989 84.1387 295.958 84.1309 295.918 84.127C298.577 93.0214 306.75 99.1164 316.031 99.132V99.132Z" fill="#E4FEE4"/>
<path d="M279.11 79.0629C279.52 81.7024 281.628 83.7483 284.279 84.0841C286.93 84.4199 289.484 82.9635 290.542 80.5115C290.331 80.0468 290.183 79.5627 290.101 79.0629L283.623 37.4604L268.349 31.3616C267.81 32.6227 267.142 33.8292 266.365 34.9615L272.628 37.4604L279.11 79.0629Z" fill="#E4FEE4"/>
<path d="M266.365 34.9615L257.354 31.3616C254.816 37.2886 249.709 41.728 243.489 43.4187C252.137 45.7809 261.336 42.384 266.365 34.9615Z" fill="#E4FEE4"/>
<path d="M315.913 248.565H304.918C307.249 254.871 312.22 259.845 318.529 262.172V298.434C308.866 300.62 301.947 309.128 301.787 319.034C301.787 324.961 304.309 330.611 308.717 334.578L302.462 342.152C305.266 342.929 307.819 344.425 309.869 346.494L319.712 334.578C315.304 330.611 312.782 324.961 312.782 319.034C312.942 309.128 319.861 300.62 329.524 298.434V262.172C323.215 259.845 318.244 254.871 315.913 248.565Z" fill="#E4FEE4"/>
<path d="M323.227 206.565C321.719 205.87 320.583 204.558 320.115 202.969C319.798 202.32 319.599 201.625 319.525 200.911V174.598H308.534V200.911C308.608 201.625 308.807 202.32 309.124 202.969C309.592 204.562 310.724 205.873 312.232 206.565L353.514 224.974V230.913C357.844 237.738 357.844 246.449 353.514 253.274V261.111C349.121 261.325 344.916 262.95 341.519 265.737V295.193C343.479 294.283 345.369 293.225 347.169 292.026C343.858 285.689 343.971 278.111 347.47 271.875C350.968 265.64 357.375 261.591 364.509 261.111V224.974L323.227 206.565Z" fill="#E4FEE4"/>
<path d="M278.547 341.906C271.551 344.12 265.936 350.52 264.444 358.516H275.439C276.931 350.52 282.546 344.12 289.542 341.906V316.535H278.547V341.906Z" fill="#E4FEE4"/>
<path d="M226.071 343.273C224.138 343.265 222.209 343.488 220.331 343.937C227.519 345.811 233.173 351.363 235.18 358.516H246.175C243.66 349.493 235.434 343.257 226.071 343.273Z" fill="#E4FEE4"/>
<path d="M217.559 344.846C218.457 344.468 219.382 344.163 220.331 343.937C219.144 343.632 217.934 343.429 216.712 343.335L217.559 344.846Z" fill="#E4FEE4"/>
<path d="M84.9855 369.531C93.1029 369.535 101.076 367.403 108.104 363.346C121.684 375.348 141.042 378.265 157.551 370.792C174.063 363.319 184.648 346.849 184.589 328.729V52.93C184.691 37.9718 176.308 24.2475 162.955 17.5122C149.597 10.773 133.577 12.1904 121.61 21.1629C109.642 30.1355 103.797 45.1171 106.523 59.8253C85.7898 54.031 63.538 59.88 48.3378 75.1232C33.1336 90.3664 27.3432 112.63 33.1922 133.347C19.546 139.481 9.92135 152.093 7.60207 166.871C5.2828 181.654 10.5851 196.604 21.6973 206.623C8.01204 217.899 0.0624728 234.681 6.85821e-07 252.411C-0.00390382 277.962 16.6644 299.8 38.6546 308.238V323.372C38.7639 348.888 59.4695 369.515 84.9855 369.531V369.531ZM12.1664 252.411C12.1938 226.161 33.4694 204.885 59.7194 204.858C63.0304 204.858 65.7167 202.172 65.7167 198.861C65.7167 195.546 63.0304 192.864 59.7194 192.864C50.0987 192.856 40.6225 195.195 32.1067 199.677C23.6691 193.402 18.808 183.415 19.0813 172.904C19.3546 162.393 24.7272 152.671 33.4811 146.845C34.7969 145.974 36.1752 145.197 37.6004 144.526C38.0299 145.354 38.4711 146.173 38.9357 146.982C40.0017 148.856 41.989 150.015 44.1443 150.019C46.2996 150.023 48.2909 148.871 49.3608 147.001C50.4306 145.131 50.415 142.827 49.3178 140.973C38.065 121.47 42.032 96.7502 58.8136 81.7452C75.599 66.7363 100.607 65.5571 118.732 78.9145C120.458 80.1951 122.734 80.4606 124.706 79.6016C126.674 78.7466 128.037 76.9036 128.275 74.7679C128.513 72.636 127.591 70.5354 125.862 69.2664C124.409 68.1927 122.914 67.2009 121.387 66.2678C115.745 56.2644 116.948 43.8012 124.401 35.063C131.855 26.3208 143.971 23.1659 154.739 27.1602C165.508 31.1506 172.638 41.4429 172.595 52.93V328.729C172.661 341.711 165.325 353.6 153.689 359.363C142.058 365.126 128.154 363.76 117.865 355.838C126.451 347.212 131.277 335.542 131.281 323.375C131.309 321.216 130.176 319.213 128.314 318.128C126.451 317.042 124.148 317.042 122.285 318.128C120.423 319.213 119.287 321.216 119.314 323.375C119.314 342.336 103.942 357.708 84.9815 357.708C66.0174 357.708 50.6453 342.336 50.6453 323.375V311.314C53.5932 311.74 56.5685 311.955 59.5476 311.963C62.8742 311.967 65.5879 309.292 65.6269 305.965C65.6386 304.38 65.0139 302.853 63.8972 301.729C62.7805 300.604 61.2617 299.968 59.6725 299.968C33.4304 299.933 12.1742 278.653 12.1664 252.411V252.411Z" fill="#EF6C00"/>
<path d="M136.779 198.81C138.118 190.009 135.713 181.049 130.149 174.099C128.076 171.518 124.3 171.104 121.715 173.173C119.134 175.246 118.72 179.022 120.794 181.607C125.315 187.265 126.404 194.933 123.636 201.625C110.802 207.381 103.262 220.871 105.086 234.821C105.476 237.801 108.014 240.034 111.021 240.038C111.286 240.034 111.552 240.018 111.813 239.983C115.097 239.554 117.408 236.539 116.975 233.256C116.585 230.288 116.874 227.274 117.822 224.435C119.818 218.426 124.55 213.725 130.574 211.773C136.599 209.821 143.19 210.852 148.332 214.549C151.018 216.482 154.767 215.877 156.703 213.187C158.64 210.5 158.031 206.752 155.341 204.815C149.933 200.922 143.444 198.822 136.779 198.81Z" fill="#EF6C00"/>
<path d="M70.8005 177.851C73.1159 175.481 73.069 171.685 70.7029 169.37C68.7194 167.426 67.3528 164.942 66.771 162.225C70.5311 156.181 71.6673 148.864 69.9103 141.96C69.0864 138.755 65.8183 136.822 62.6088 137.646C59.4032 138.47 57.4705 141.738 58.2944 144.947C59.946 151.448 56.8224 158.219 50.8055 161.182C47.8264 162.631 46.5887 166.223 48.0372 169.202C49.4897 172.177 53.0779 173.415 56.0571 171.967C56.5139 171.744 56.9512 171.49 57.3885 171.244C58.6653 173.724 60.3286 175.984 62.316 177.94C64.686 180.256 68.4812 180.209 70.7966 177.839L70.8005 177.851Z" fill="#EF6C00"/>
<path d="M101.377 105.774C106.843 104.384 112.614 106.371 116.069 110.834C119.521 115.297 119.993 121.384 117.276 126.327C116.233 128.205 116.272 130.497 117.381 132.336C118.486 134.179 120.497 135.284 122.644 135.241C124.792 135.194 126.752 134.003 127.779 132.117C130.168 127.772 131.277 122.832 130.977 117.882C137.759 117.714 144.205 114.906 148.945 110.057C150.46 108.53 151.042 106.305 150.468 104.231C149.89 102.154 148.246 100.546 146.161 100.018C144.072 99.4914 141.862 100.12 140.367 101.674C136.888 105.223 131.797 106.68 126.967 105.516C126.865 105.348 126.768 105.18 126.654 105.016C120.497 95.7547 109.162 91.4012 98.3897 94.15C95.1802 94.9738 93.2474 98.2419 94.0713 101.451C94.8951 104.661 98.1632 106.594 101.373 105.77L101.377 105.774Z" fill="#EF6C00"/>
<path d="M81.9713 283.987C82.0181 284.206 82.0806 284.42 82.1548 284.635C84.271 292.565 82.432 301.03 77.2195 307.371C75.1501 309.928 75.5288 313.673 78.0668 315.766C80.6047 317.859 84.353 317.519 86.4693 315C91.7677 308.566 94.7702 300.546 94.9967 292.214C105.601 295.005 116.901 292.991 125.889 286.704C128.603 284.803 129.259 281.066 127.361 278.353C125.46 275.639 121.723 274.979 119.009 276.877C111.286 282.265 101.22 282.944 92.8453 278.634C90.979 273.406 87.9686 268.662 84.0407 264.742C82.5296 263.207 80.308 262.602 78.2269 263.152C76.1458 263.707 74.5215 265.335 73.967 267.416C73.4165 269.501 74.0256 271.719 75.564 273.226C78.5626 276.225 80.7648 279.922 81.9713 283.987V283.987Z" fill="#EF6C00"/>
<path d="M370.975 166.481C381.283 163.978 388.1 154.174 386.854 143.639C385.609 133.101 376.695 125.156 366.09 125.124L342.499 92.2718C348.828 85.4077 349.848 75.1818 344.994 67.2049C340.145 59.228 330.594 55.4289 321.591 57.8887L297.398 47.8776L294.966 32.2361C294.642 30.1433 293.236 28.3785 291.268 27.5898L269.622 18.9335C267.587 9.02385 258.775 1.98012 248.666 2.17535C238.554 2.37057 230.022 9.75399 228.375 19.73L204.272 35.6526C203.015 36.4842 202.117 37.7571 201.754 39.2213L196.006 61.4887C195.811 61.9494 195.67 62.4297 195.584 62.9255V328.729C195.67 329.767 196.014 330.767 196.584 331.637L208.344 352.616C206.146 356.009 204.99 359.972 205.014 364.018C205.022 375.661 214.392 385.129 226.036 385.258C235.188 385.086 243.247 379.183 246.175 370.511H276.638C280.117 378.132 287.661 383.087 296.04 383.255C307.648 383.181 317.026 373.751 317.03 362.139C317.026 360.617 316.862 359.102 316.542 357.618L331.2 339.841C339.961 341.047 348.536 336.62 352.631 328.779C356.727 320.939 355.458 311.373 349.461 304.868C351.804 303.599 354.053 302.17 356.2 300.597C362.674 304.048 370.487 303.83 376.757 300.023C383.028 296.216 386.823 289.383 386.749 282.05C386.648 274.729 382.77 267.982 376.504 264.203V221.078C376.605 218.75 375.297 216.587 373.189 215.596L361.034 210.137C361.385 209.59 361.647 208.989 361.811 208.357L370.975 166.481ZM375.004 146.111C375.004 151.078 370.975 155.107 366.008 155.107C361.038 155.107 357.012 151.078 357.012 146.111C357.012 141.141 361.038 137.115 366.008 137.115C370.971 137.119 374.996 141.145 375.004 146.111ZM336.022 78.1414C336.022 83.1079 331.992 87.1374 327.026 87.1374C322.055 87.1374 318.03 83.1079 318.03 78.1414C318.03 73.171 322.055 69.1454 327.026 69.1454C331.988 69.1493 336.014 73.1749 336.022 78.1414ZM249.061 14.17C254.027 14.17 258.057 18.1955 258.057 23.166C258.057 28.1325 254.027 32.1619 249.061 32.1619C244.09 32.1619 240.065 28.1325 240.065 23.166C240.068 18.1994 244.094 14.1739 249.061 14.17ZM226.071 123.621H244.563V147.993C236.566 150.582 229.569 158.609 229.569 168.101C229.569 177.589 236.566 185.617 244.563 188.206V196.588H207.579V91.6354H219.574V117.124C219.765 120.626 222.565 123.426 226.071 123.621ZM281.437 123.621C283.116 130.915 288.449 136.822 295.54 139.227V162.604H271.164C269.102 155.564 263.597 150.058 256.557 147.993V123.621H281.437ZM302.037 128.119C297.066 128.119 293.041 124.09 293.041 119.123C293.041 114.153 297.066 110.127 302.037 110.127C307.003 110.127 311.033 114.153 311.033 119.123C311.025 124.09 307 128.111 302.037 128.119ZM251.06 177.097C246.089 177.097 242.064 173.068 242.064 168.101C242.064 163.131 246.089 159.105 251.06 159.105C256.026 159.105 260.056 163.131 260.056 168.101C260.048 173.068 256.022 177.089 251.06 177.097ZM207.579 280.551H243.946C246.277 286.857 251.247 291.831 257.557 294.158V310.038C257.748 313.54 260.548 316.34 264.054 316.535H289.542V341.906C282.546 344.12 276.931 350.52 275.439 358.516H246.175C243.661 349.493 235.434 343.257 226.071 343.273C223.158 343.23 220.265 343.765 217.559 344.846L207.579 327.171V280.551ZM264.054 283.05C259.083 283.05 255.058 279.02 255.058 274.054C255.058 269.083 259.083 265.058 264.054 265.058C269.02 265.058 273.05 269.083 273.05 274.054C273.042 279.02 269.016 283.042 264.054 283.05ZM226.071 373.01C221.1 373.01 217.075 368.98 217.075 364.014C217.075 359.043 221.1 355.018 226.071 355.018C231.037 355.018 235.067 359.043 235.067 364.014C235.059 368.98 231.033 373.002 226.071 373.01ZM296.04 371.011C291.069 371.011 287.044 366.981 287.044 362.015C287.044 357.044 291.069 353.019 296.04 353.019C301.006 353.019 305.036 357.044 305.036 362.015C305.028 366.981 301.002 371.003 296.04 371.011ZM309.869 346.494C307.601 344.183 304.704 342.59 301.537 341.906V310.038C301.631 308.55 301.08 307.098 300.03 306.047C298.976 304.993 297.523 304.447 296.04 304.54H269.551V294.158C279.235 291.472 285.611 282.249 284.709 272.242C283.803 262.231 275.873 254.301 265.862 253.395C255.854 252.493 246.632 258.873 243.946 268.556H207.579V208.583H265.397L274.237 243.567C274.916 246.219 277.306 248.565 280.047 248.565H315.914C318.244 254.871 323.215 259.845 329.525 262.172V298.434C319.861 300.62 312.942 309.128 312.782 319.034C312.782 324.961 315.304 330.611 319.713 334.578L309.869 346.494ZM336.022 251.064C331.051 251.064 327.026 247.035 327.026 242.068C327.026 237.098 331.051 233.072 336.022 233.072C340.988 233.072 345.018 237.098 345.018 242.068C345.01 247.035 340.984 251.056 336.022 251.064ZM334.023 328.03C333.304 328.026 332.594 327.936 331.899 327.764C331.348 327.464 330.751 327.249 330.134 327.132C326.022 325.14 324.066 320.377 325.589 316.07C327.108 311.76 331.621 309.284 336.072 310.315C340.524 311.346 343.491 315.551 342.964 320.092C342.441 324.629 338.591 328.049 334.023 328.034V328.03ZM366.008 291.046C362.529 291.058 359.351 289.067 357.852 285.927C356.352 282.788 356.798 279.067 358.992 276.369C361.19 273.671 364.747 272.48 368.125 273.316C368.675 273.617 369.269 273.831 369.885 273.945C373.677 275.752 375.711 279.95 374.782 284.045C373.852 288.141 370.21 291.05 366.008 291.046V291.046ZM364.509 261.11C357.375 261.591 350.968 265.64 347.47 271.875C343.975 278.111 343.858 285.689 347.169 292.026C345.369 293.225 343.479 294.283 341.519 295.193V262.172C351.202 259.486 357.578 250.264 356.677 240.256C355.771 230.245 347.841 222.315 337.829 221.409C327.822 220.507 318.6 226.887 315.914 236.571H284.697L275.857 201.586C275.178 198.935 272.788 196.588 270.051 196.588H256.557V188.206C263.3 186.234 268.72 181.189 271.164 174.598H319.529V200.911C319.603 201.625 319.802 202.32 320.119 202.968C320.587 204.561 321.72 205.873 323.227 206.564L364.509 224.974V261.11ZM331.524 197.162V168.101C331.602 166.61 331.04 165.153 329.978 164.103C328.916 163.053 327.455 162.506 325.964 162.604H307.534V139.227C317.569 136.443 324 126.667 322.582 116.347C321.161 106.027 312.325 98.3511 301.912 98.3824C293.353 98.3433 285.669 103.622 282.635 111.626H231.568V85.8723C231.568 82.5613 229.382 79.6407 226.071 79.6407H207.579V63.6557L212.589 44.3713L230.288 32.7593C234.028 40.0061 241.615 44.4377 249.763 44.141C257.912 43.8403 265.151 38.8621 268.349 31.3615L283.623 37.4604L290.105 79.0629C290.612 82.3348 293.681 84.5799 296.953 84.0684C300.229 83.5609 302.47 80.4919 301.963 77.216L299.558 61.7542L309.904 66.0335C304.79 73.1944 304.7 82.7917 309.682 90.0501C314.664 97.3047 323.652 100.666 332.176 98.4643L354.029 128.896C347.587 133.363 344.178 141.051 345.193 148.821C346.205 156.595 351.472 163.15 358.844 165.813L350.043 205.296L331.524 197.162Z" fill="#EF6C00"/>
</g>
<defs>
<clipPath id="clip0">
<rect width="387" height="387" fill="white"/>
</clipPath>
</defs>
</svg>
