<svg width="75" height="76" viewBox="0 0 75 76" fill="none" xmlns="http://www.w3.org/2000/svg">
<circle cx="37.5" cy="38.5" r="37.5" fill="#EF6C00"/>
<rect x="19" y="28" width="37" height="21" fill="#EF6C00"/>
<path d="M37.5 18C24.5199 18 14 26.5203 14 37.0357C14 41.575 15.9645 45.7299 19.2324 48.9971C18.085 53.6096 14.2479 57.7188 14.202 57.7645C14 57.975 13.9449 58.2862 14.0643 58.5607C14.1836 58.8353 14.4406 59 14.7344 59C20.8205 59 25.3828 56.0897 27.641 54.296C30.6428 55.4217 33.975 56.0714 37.5 56.0714C50.4801 56.0714 61 47.5511 61 37.0357C61 26.5203 50.4801 18 37.5 18ZM25.75 39.9643C24.1252 39.9643 22.8125 38.6556 22.8125 37.0357C22.8125 35.4158 24.1252 34.1071 25.75 34.1071C27.3748 34.1071 28.6875 35.4158 28.6875 37.0357C28.6875 38.6556 27.3748 39.9643 25.75 39.9643ZM37.5 39.9643C35.8752 39.9643 34.5625 38.6556 34.5625 37.0357C34.5625 35.4158 35.8752 34.1071 37.5 34.1071C39.1248 34.1071 40.4375 35.4158 40.4375 37.0357C40.4375 38.6556 39.1248 39.9643 37.5 39.9643ZM49.25 39.9643C47.6252 39.9643 46.3125 38.6556 46.3125 37.0357C46.3125 35.4158 47.6252 34.1071 49.25 34.1071C50.8748 34.1071 52.1875 35.4158 52.1875 37.0357C52.1875 38.6556 50.8748 39.9643 49.25 39.9643Z" fill="#E4FEE4"/>
</svg>
