<svg width="16" height="16" viewBox="0 0 16 16" fill="none" xmlns="http://www.w3.org/2000/svg">
<path d="M7.99992 1.35999C4.33325 1.35999 1.33325 4.35332 1.33325 8.03999C1.33325 11.3733 3.77325 14.14 6.95992 14.64V9.97332H5.26659V8.03999H6.95992V6.56665C6.95992 4.89332 7.95325 3.97332 9.47992 3.97332C10.2066 3.97332 10.9666 4.09999 10.9666 4.09999V5.74665H10.1266C9.29992 5.74665 9.03992 6.25999 9.03992 6.78665V8.03999H10.8933L10.5933 9.97332H9.03992V14.64C10.6109 14.3919 12.0414 13.5903 13.0732 12.38C14.105 11.1697 14.6702 9.63041 14.6666 8.03999C14.6666 4.35332 11.6666 1.35999 7.99992 1.35999Z" fill="white"/>
</svg>
